<?xml version="1.0" encoding="UTF-8"?>
<svg id="Ebene_1" xmlns="http://www.w3.org/2000/svg" version="1.1" viewBox="0 0 46.39 44.16">
  <!-- Generator: Adobe Illustrator 30.2.1, SVG Export Plug-In . SVG Version: 2.1.1 Build 1)  -->
  <defs>
    <style>
      .st0 {
        fill: #dfca99;
      }

      .st1 {
        fill: #3e3935;
      }
    </style>
  </defs>
  <circle class="st0" cx="23.19" cy="22.08" r="17.95"/>
  <path class="st1" d="M27.26,26.15h-8.12v-8.12h8.12v8.12ZM20.46,24.83h5.49v-5.49h-5.49v5.49Z"/>
  <g>
    <polygon class="st1" points="16.3 28.99 16.3 27.65 14.99 27.65 14.99 30.3 17.62 30.3 17.62 28.99 16.3 28.99"/>
    <polygon class="st1" points="30.1 15.19 30.1 16.49 31.41 16.49 31.41 13.87 28.79 13.87 28.79 15.19 30.1 15.19"/>
    <polygon class="st1" points="30.1 28.99 28.79 28.99 28.79 30.3 31.41 30.3 31.41 27.65 30.1 27.65 30.1 28.99"/>
    <polygon class="st1" points="16.3 15.19 17.62 15.19 17.62 13.87 14.99 13.87 14.99 16.49 16.3 16.49 16.3 15.19"/>
  </g>
</svg>