<?xml version="1.0" encoding="UTF-8"?>
<svg id="Ebene_1" xmlns="http://www.w3.org/2000/svg" version="1.1" viewBox="0 0 46.39 44.16">
  <!-- Generator: Adobe Illustrator 30.2.1, SVG Export Plug-In . SVG Version: 2.1.1 Build 1)  -->
  <defs>
    <style>
      .st0 {
        fill: #dfca99;
      }

      .st1 {
        fill: #3e3935;
      }
    </style>
  </defs>
  <circle class="st0" cx="23.19" cy="22.08" r="17.95"/>
  <g id="hybofT">
    <g>
      <path class="st1" d="M21.31,17.62v-1.24s1.27,0,1.27,0v-1.27s1.27,0,1.27,0v-1.27h-1.27v1.27s-1.27,0-1.27,0v1.27s-1.27.01-1.27.01v1.23s1.27,0,1.27,0ZM25.1,29.03v-13.91h-1.25s0,13.92,0,13.92l1.25-.02ZM20.04,18.89v-1.27s-1.26,0-1.26,0v1.27s1.25,0,1.25,0h0ZM17.5,20.17v3.82s-2.51,0-2.51,0v1.27s3.79,0,3.79,0v-6.35s-3.78,0-3.78,0v1.26s-1.3,0-1.3,0v3.81h1.3v-3.82h2.51s0,0,0,0ZM27.65,20.16v-1.26s-1.27,0-1.27,0v1.26h1.27ZM32.7,20.16v-1.26h-1.24v1.27h1.24ZM28.92,21.43v-1.27s-1.28,0-1.28,0v1.27h1.28ZM31.46,21.43v-1.26s-1.27,0-1.27,0v1.27s1.27,0,1.27,0h0ZM30.19,22.71v-1.26s-1.27,0-1.27,0v1.28s1.27,0,1.27,0ZM28.92,23.98v-1.26s-1.27,0-1.27,0v1.27h1.27s0,0,0,0ZM31.46,23.98v-1.26s-1.27,0-1.27,0v1.26h1.27s0,0,0,0ZM27.64,25.23v-1.24s-1.27,0-1.27,0v1.25s1.27,0,1.27,0h0ZM32.7,25.23v-1.24s-1.24,0-1.24,0v1.25s1.24,0,1.24,0h0ZM23.85,30.32v-1.28s-1.27,0-1.27,0v-1.28h-1.27s0-1.27,0-1.27h-1.27s0-1.24,0-1.24h-1.26s0,1.23,0,1.23h1.25s.01,1.27.01,1.27h1.26s0,1.28,0,1.28h1.27s0,1.28,0,1.28h1.27Z"/>
      <polygon class="st1" points="25.1 29.03 23.85 29.04 23.85 15.11 25.1 15.12 25.1 29.03"/>
      <polygon class="st1" points="17.5 20.17 14.99 20.16 14.99 23.98 13.69 23.98 13.69 20.17 14.99 20.16 14.99 18.91 18.78 18.9 18.77 25.25 14.99 25.25 14.99 23.98 17.5 23.98 17.5 20.17"/>
      <polygon class="st1" points="21.31 17.62 20.04 17.63 20.05 16.4 21.31 16.38 21.32 15.12 22.58 15.11 22.59 13.84 23.85 13.84 23.85 15.11 22.58 15.11 22.58 16.38 21.31 16.38 21.31 17.62"/>
      <polygon class="st1" points="23.85 30.32 22.59 30.32 22.58 29.05 21.32 29.04 21.31 27.77 20.05 27.76 20.03 26.5 18.78 26.49 18.77 25.26 20.03 25.26 20.04 26.5 21.31 26.5 21.31 27.77 22.59 27.77 22.59 29.05 23.86 29.04 23.85 30.32"/>
      <polygon class="st1" points="30.19 22.71 28.92 22.71 28.92 21.43 30.19 21.44 30.19 22.71"/>
      <polygon class="st1" points="28.92 21.43 27.65 21.43 27.65 20.16 28.92 20.17 28.92 21.43"/>
      <polygon class="st1" points="28.92 23.98 27.65 23.98 27.64 22.71 28.91 22.72 28.92 23.98"/>
      <polygon class="st1" points="20.04 18.89 18.77 18.9 18.78 17.63 20.04 17.63 20.04 18.89"/>
      <polygon class="st1" points="27.65 20.16 26.38 20.16 26.38 18.9 27.64 18.9 27.65 20.16"/>
      <polygon class="st1" points="31.46 21.43 30.19 21.44 30.19 20.17 31.45 20.17 31.46 21.43"/>
      <polygon class="st1" points="31.46 23.98 30.2 23.98 30.19 22.72 31.46 22.72 31.46 23.98"/>
      <polygon class="st1" points="27.64 25.23 26.38 25.24 26.37 23.99 27.64 23.99 27.64 25.23"/>
      <polygon class="st1" points="32.7 20.16 31.46 20.17 31.46 18.9 32.7 18.9 32.7 20.16"/>
      <polygon class="st1" points="32.7 25.23 31.46 25.23 31.46 23.98 32.7 23.99 32.7 25.23"/>
    </g>
  </g>
</svg>