<?xml version="1.0" encoding="UTF-8"?>
<svg id="Ebene_1" xmlns="http://www.w3.org/2000/svg" version="1.1" viewBox="0 0 46.39 44.16">
  <!-- Generator: Adobe Illustrator 30.2.1, SVG Export Plug-In . SVG Version: 2.1.1 Build 1)  -->
  <defs>
    <style>
      .st0 {
        fill: #dfca99;
      }

      .st1 {
        fill: #3e3935;
      }
    </style>
  </defs>
  <circle class="st0" cx="23.19" cy="22.08" r="17.95"/>
  <g>
    <polygon class="st1" points="26.54 17.04 26.54 17.04 26.54 17.04 27.88 17.04 27.87 15.71 27.87 15.71 27.87 15.71 26.53 15.7 26.53 15.7 26.54 17.04"/>
    <path class="st1" d="M31.89,20.97v-1.33h-1.39v-1.26s-1.33,0-1.33,0v-1.33s-1.3,0-1.3,0h0v1.33h1.3v1.27s-11.96,0-11.96,0v-1.27s1.33,0,1.33,0h0v-1.33s0,0,0,0h0s1.31,0,1.31,0v-1.32h1.33v-1.33s-1.33,0-1.33,0v1.32s-1.31,0-1.31,0v1.33s0,0,0,0h-1.32s-.01,1.33-.01,1.33h-1.33s0,1.27,0,1.27h-1.38v1.33s1.39,0,1.39,0v9.62h14.61v-9.62h1.39ZM29.16,29.21h-11.92v-8.25h11.92v8.25Z"/>
    <polygon class="st1" points="25.2 15.7 26.53 15.7 26.53 15.7 26.52 14.4 25.19 14.39 25.2 15.7"/>
    <rect class="st1" x="21.19" y="13.05" width="4" height="1.34"/>
  </g>
</svg>