<?xml version="1.0" encoding="UTF-8"?>
<svg id="Ebene_1" xmlns="http://www.w3.org/2000/svg" version="1.1" viewBox="0 0 46.39 44.16">
  <!-- Generator: Adobe Illustrator 30.2.1, SVG Export Plug-In . SVG Version: 2.1.1 Build 1)  -->
  <defs>
    <style>
      .st0 {
        fill: #dfca99;
      }

      .st1 {
        fill: #3e3935;
      }
    </style>
  </defs>
  <circle class="st0" cx="23.19" cy="22.08" r="17.95"/>
  <g id="wOZPpo">
    <g>
      <path class="st1" d="M21.31,17.65v-1.24h1.27s0-1.26,0-1.26h1.27s0-1.27,0-1.27h-1.27v1.27h-1.27s0,1.26,0,1.26h-1.26s0,1.24,0,1.24h1.27,0ZM25.09,29.04v-13.89h-1.23s0,13.9,0,13.9h1.23s0-.01,0-.01ZM32.67,25.71v-7.23h-1.24s0-1.27,0-1.27h-1.27v-1.27h-2.54v1.27h2.54v1.26s1.27.01,1.27.01v7.23h1.24s0,0,0,0ZM18.78,25.27v1.24s1.27,0,1.27,0v-1.24s-1.27,0-1.27,0v-6.35h1.27s0-1.28,0-1.28h-1.27s0,1.28,0,1.28h-3.78s0,1.27,0,1.27h2.51s0,3.81,0,3.81h-2.51s0,1.27,0,1.27h3.78s0,0,0,0ZM30.16,24.42v-4.67s-1.26,0-1.26,0v-1.26s-1.28,0-1.28,0v1.27h1.28s0,4.69,0,4.69l1.26-.02h0ZM14.99,24v-3.81h-1.31v3.81h1.31ZM28.88,25.71v-1.26h-1.27v1.27s1.27,0,1.27,0ZM30.16,28.22v-1.27s1.27,0,1.27,0v-1.24h-1.27s0,1.24,0,1.24h-2.54v1.27h2.54s0,0,0,0ZM23.86,30.32v-1.27h-1.27v-1.27s-1.27,0-1.27,0v-1.27h-1.27s0,1.26,0,1.26h1.26s0,1.27,0,1.27h1.27v1.27h1.27Z"/>
      <polygon class="st1" points="25.09 29.04 23.86 29.05 23.86 15.14 25.09 15.15 25.09 29.04"/>
      <polygon class="st1" points="18.78 25.27 15 25.27 14.99 24 17.5 24 17.5 20.19 14.99 20.19 15 18.92 18.78 18.92 18.78 17.65 20.04 17.64 20.04 18.92 18.78 18.92 18.78 25.27 20.04 25.27 20.05 26.51 18.78 26.51 18.78 25.27"/>
      <polygon class="st1" points="32.67 25.71 31.43 25.71 31.43 18.48 30.16 18.47 30.16 17.2 27.62 17.21 27.62 15.93 30.16 15.93 30.16 17.2 31.43 17.21 31.43 18.47 32.67 18.48 32.67 25.71"/>
      <polygon class="st1" points="14.99 24 13.69 24 13.69 20.19 14.99 20.19 14.99 24"/>
      <polygon class="st1" points="30.16 24.42 28.89 24.44 28.89 19.74 27.62 19.74 27.62 18.47 28.89 18.48 28.9 19.74 30.16 19.75 30.16 24.42"/>
      <polygon class="st1" points="30.16 28.22 27.62 28.23 27.62 26.95 30.16 26.95 30.16 25.72 31.43 25.72 31.43 26.95 30.16 26.96 30.16 28.22"/>
      <polygon class="st1" points="21.31 17.65 20.04 17.64 20.05 16.42 21.31 16.41 21.32 15.15 22.59 15.14 22.59 13.87 23.85 13.87 23.86 15.14 22.59 15.14 22.58 16.41 21.31 16.41 21.31 17.65"/>
      <polygon class="st1" points="23.86 30.32 22.59 30.32 22.59 29.05 21.32 29.05 21.31 27.79 20.05 27.77 20.04 26.52 21.31 26.51 21.31 27.79 22.59 27.78 22.59 29.05 23.85 29.05 23.86 30.32"/>
      <polygon class="st1" points="28.88 25.71 27.62 25.71 27.62 24.44 28.88 24.44 28.88 25.71"/>
    </g>
  </g>
</svg>