<?xml version="1.0" encoding="UTF-8"?>
<svg id="Ebene_1" xmlns="http://www.w3.org/2000/svg" version="1.1" viewBox="0 0 305.03 271.09">
  <!-- Generator: Adobe Illustrator 30.2.1, SVG Export Plug-In . SVG Version: 2.1.1 Build 1)  -->
  <defs>
    <style>
      .st0 {
        fill: #3e3935;
      }
    </style>
  </defs>
  <polygon class="st0" points="229.67 115.6 229.67 230.4 75.42 230.4 75.42 115.6 58.02 115.6 58.02 248.15 58.1 248.15 75.42 248.15 229.67 248.15 246.97 248.15 247.07 248.15 247.07 115.6 229.67 115.6"/>
  <g>
    <polygon class="st0" points="195.76 72.85 195.78 72.85 195.78 72.86 213.08 72.88 212.97 55.67 212.95 55.67 212.95 55.66 195.7 55.61 195.68 55.63 195.76 72.85"/>
    <polygon class="st0" points="265.02 106.52 247.07 106.52 247.04 90.17 229.88 90.12 229.74 72.96 213.06 72.89 213.06 72.89 213.05 72.89 213.05 90.13 229.88 90.13 229.91 106.52 75.17 106.52 75.15 90.14 92.43 90.14 92.44 90.14 92.41 72.91 92.42 72.91 92.42 72.92 109.31 72.84 109.34 55.73 126.56 55.73 126.53 38.46 109.41 38.56 109.26 55.62 92.49 55.7 92.41 72.9 92.41 72.87 92.4 72.87 92.4 72.87 75.28 72.97 75.13 90.12 57.98 90.17 57.95 106.52 40.1 106.52 39.96 123.72 265.06 123.73 265.02 106.52"/>
    <polygon class="st0" points="195.66 55.56 195.68 55.6 195.6 38.72 178.38 38.64 178.46 55.53 195.66 55.56"/>
    <rect class="st0" x="126.59" y="21.29" width="51.8" height="17.34"/>
  </g>
</svg>