<?xml version="1.0" encoding="UTF-8"?>
<svg id="Ebene_1" xmlns="http://www.w3.org/2000/svg" version="1.1" viewBox="0 0 305.03 271.09">
  <!-- Generator: Adobe Illustrator 30.2.1, SVG Export Plug-In . SVG Version: 2.1.1 Build 1)  -->
  <defs>
    <style>
      .st0 {
        fill: #3e3935;
      }
    </style>
  </defs>
  <polygon class="st0" points="195.76 72.85 195.78 72.85 195.78 72.86 213.08 72.88 212.97 55.67 212.95 55.67 212.95 55.66 195.7 55.61 195.68 55.63 195.76 72.85"/>
  <path class="st0" d="M265.06,123.73l-.04-17.21h-17.95l-.03-16.35-17.16-.05-.14-17.16-16.68-.07h-.01v17.24h16.83l.03,16.39H75.17l-.02-16.38h17.29l-.03-17.23h0s16.89-.07,16.89-.07l.03-17.11h17.22l-.03-17.27-17.12.1-.15,17.06-16.77.08-.08,17.2v-.03h-.01l-17.12.1-.15,17.15-17.15.05-.03,16.35h-17.85l-.14,17.2h18.06v124.43h189.05v-124.42h17.99ZM229.67,230.4H75.42v-106.68h154.25v106.68Z"/>
  <polygon class="st0" points="178.46 55.53 195.66 55.56 195.68 55.6 195.6 38.72 178.38 38.64 178.46 55.53"/>
  <rect class="st0" x="126.59" y="21.29" width="51.8" height="17.34"/>
</svg>