<?xml version="1.0" encoding="UTF-8"?>
<svg id="Ebene_1" xmlns="http://www.w3.org/2000/svg" version="1.1" viewBox="0 0 271.21 271.09">
  <!-- Generator: Adobe Illustrator 30.2.1, SVG Export Plug-In . SVG Version: 2.1.1 Build 1)  -->
  <defs>
    <style>
      .st0 {
        fill: none;
        stroke: #3e3935;
        stroke-miterlimit: 10;
        stroke-width: 18px;
      }

      .st1 {
        fill: #3e3935;
      }
    </style>
  </defs>
  <rect class="st0" x="89.04" y="88.98" width="93.13" height="93.13"/>
  <g>
    <polygon class="st1" points="41.25 229.9 41.25 211.66 23.25 211.66 23.25 247.9 59.23 247.9 59.23 229.9 41.25 229.9"/>
    <polygon class="st1" points="229.95 41.19 229.95 58.91 247.95 58.91 247.95 23.19 211.98 23.19 211.98 41.19 229.95 41.19"/>
    <polygon class="st1" points="229.95 229.9 211.98 229.9 211.98 247.9 247.95 247.9 247.95 211.66 229.95 211.66 229.95 229.9"/>
    <polygon class="st1" points="41.25 41.19 59.23 41.19 59.23 23.19 23.25 23.19 23.25 58.91 41.25 58.91 41.25 41.19"/>
  </g>
</svg>