<?xml version="1.0" encoding="UTF-8"?>
<svg id="Ebene_1" xmlns="http://www.w3.org/2000/svg" version="1.1" viewBox="0 0 305.03 271.09">
  <!-- Generator: Adobe Illustrator 30.2.1, SVG Export Plug-In . SVG Version: 2.1.1 Build 1)  -->
  <defs>
    <style>
      .st0 {
        fill: #3e3935;
      }
    </style>
  </defs>
  <g id="wOZPpo">
    <g>
      <path class="st0" d="M127.1,75.01v-16.83l17.27-.03.06-17.15,17.26-.02-.04-17.3-17.22.02v17.3l-17.29.03-.05,17.16-17.16.14-.07,16.68h17.25-.01ZM178.49,229.96V41.04l-16.79-.04v189.1l16.79-.14h0ZM281.63,184.67v-98.33l-16.9-.1-.05-17.18-17.25-.08v-17.25h-34.57v17.28h34.52l.11,17.17,17.22.18v98.35l16.92-.03h0ZM92.59,178.68l.08,16.89,17.21.08-.07-16.89-17.21-.03v-86.35l17.22-.08.02-17.3-17.21.11-.05,17.25-51.36.03-.09,17.19,34.08.06.02,51.8-34.1.04.04,17.22h51.41v-.02ZM247.42,167.09l-.05-63.48-17.13-.07-.1-17.15-17.29-.12v17.28l17.37-.02v63.85l17.2-.29h0ZM41.16,161.44v-51.88l-17.76.06v51.76l17.76.06h0ZM230.07,184.65v-17.16h-17.22l.02,17.22,17.2-.06ZM247.46,218.86l-.06-17.21,17.3-.07v-16.8l-17.23.05-.06,16.81h-34.55v17.28l34.59-.05h0ZM161.69,247.42l-.04-17.31h-17.22l-.02-17.22-17.3.02v-17.29l-17.27.03.1,17.13,17.15.14.05,17.15,17.28.03v17.31h17.27Z"/>
      <polygon class="st0" points="178.49 229.96 161.69 230.1 161.7 41 178.49 41.04 178.49 229.96"/>
      <polygon class="st0" points="92.59 178.68 41.18 178.68 41.14 161.46 75.24 161.42 75.22 109.63 41.14 109.56 41.23 92.37 92.59 92.34 92.64 75.09 109.85 74.98 109.83 92.28 92.61 92.37 92.61 178.72 109.81 178.75 109.89 195.64 92.67 195.56 92.59 178.68"/>
      <polygon class="st0" points="281.63 184.67 264.7 184.7 264.71 86.36 247.48 86.18 247.38 69.01 212.87 69.02 212.86 51.73 247.43 51.74 247.43 68.98 264.68 69.06 264.73 86.24 281.64 86.35 281.63 184.67"/>
      <polygon class="st0" points="41.16 161.44 23.4 161.38 23.39 109.62 41.15 109.56 41.16 161.44"/>
      <polygon class="st0" points="247.42 167.09 230.22 167.38 230.23 103.53 212.86 103.55 212.86 86.27 230.15 86.39 230.25 103.54 247.38 103.61 247.42 167.09"/>
      <polygon class="st0" points="247.46 218.86 212.87 218.91 212.86 201.63 247.41 201.63 247.47 184.83 264.69 184.78 264.69 201.58 247.39 201.65 247.46 218.86"/>
      <polygon class="st0" points="127.1 75.01 109.86 75 109.93 58.32 127.09 58.18 127.14 41.02 144.43 40.99 144.43 23.69 161.65 23.67 161.69 40.97 144.43 40.99 144.37 58.15 127.1 58.18 127.1 75.01"/>
      <polygon class="st0" points="161.69 247.42 144.43 247.42 144.42 230.11 127.14 230.08 127.09 212.93 109.94 212.78 109.84 195.66 127.11 195.63 127.11 212.92 144.41 212.9 144.43 230.12 161.65 230.11 161.69 247.42"/>
      <polygon class="st0" points="230.07 184.65 212.87 184.7 212.85 167.48 230.05 167.49 230.07 184.65"/>
    </g>
  </g>
</svg>