<?xml version="1.0" encoding="UTF-8"?>
<svg id="Ebene_1" xmlns="http://www.w3.org/2000/svg" version="1.1" viewBox="0 0 305.03 271.09">
  <!-- Generator: Adobe Illustrator 30.2.1, SVG Export Plug-In . SVG Version: 2.1.1 Build 1)  -->
  <defs>
    <style>
      .st0 {
        fill: #3e3935;
      }
    </style>
  </defs>
  <g id="hybofT">
    <g>
      <path class="st0" d="M126.96,74.98l-.03-16.82h17.27s.03-17.3.03-17.3l17.25.02-.02-17.24h-17.19s-.05,17.21-.05,17.21l-17.21.11-.09,17.2-17.16.17-.12,16.74,17.32-.09ZM178.39,229.9V40.99s-16.92-.08-16.92-.08v189.2s16.92-.21,16.92-.21ZM109.62,92.27l.07-17.19-17.12.05-.11,17.23,17.15-.09ZM75.12,109.59l.04,51.83h-34.11s.02,17.19.02,17.19l51.42.03.02-86.26-51.39.06-.08,17.08-17.6.07v51.79s17.62,0,17.62,0v-51.88s34.08.09,34.08.09ZM212.99,109.52l-.05-17.18-17.22.03v17.17s17.27-.02,17.27-.02ZM281.6,109.49l-.03-17.15h-16.76s0,17.2,0,17.2l16.79-.05ZM230.33,126.78l-.11-17.19-17.24-.06.02,17.24h17.33ZM264.79,126.71l-.13-17.14-17.09.04.02,17.2,17.21-.09ZM247.56,144.05l-.06-17.18-17.2-.1.03,17.35,17.23-.07ZM230.24,161.32l-.03-17.14-17.25-.02v17.24s17.28-.09,17.28-.09ZM264.79,161.33l-.05-17.14-17.15.02v17.15s17.2-.03,17.2-.03ZM212.96,178.34l-.06-16.88-17.19-.03.03,16.98,17.21-.07ZM281.59,178.31l-.02-16.86-16.77-.03.02,16.93,16.77-.04ZM161.47,247.44l.03-17.34-17.25.08v-17.35s-17.31.02-17.31.02v-17.23s-17.27.01-17.27.01l-.08-16.86-17.11-.09.09,16.73,17.02.2.2,17.1,17.14.13.07,17.23,17.22.09.05,17.28h17.2Z"/>
      <polygon class="st0" points="178.39 229.9 161.47 230.11 161.48 40.91 178.4 40.99 178.39 229.9"/>
      <polygon class="st0" points="75.12 109.59 41.04 109.5 41.04 161.37 23.43 161.38 23.42 109.59 41.03 109.52 41.11 92.44 92.49 92.38 92.48 178.64 41.06 178.61 41.04 161.42 75.15 161.42 75.12 109.59"/>
      <polygon class="st0" points="126.96 74.98 109.65 75.07 109.76 58.33 126.92 58.16 127.01 40.96 144.22 40.85 144.27 23.65 161.47 23.64 161.48 40.88 144.23 40.86 144.2 58.14 126.93 58.16 126.96 74.98"/>
      <polygon class="st0" points="161.47 247.44 144.27 247.45 144.23 230.17 127 230.08 126.93 212.85 109.79 212.72 109.59 195.62 92.57 195.42 92.48 178.69 109.59 178.78 109.66 195.63 126.94 195.62 126.93 212.86 144.24 212.84 144.24 230.19 161.5 230.11 161.47 247.44"/>
      <polygon class="st0" points="247.56 144.05 230.33 144.12 230.3 126.77 247.5 126.87 247.56 144.05"/>
      <polygon class="st0" points="230.33 126.78 213 126.77 212.98 109.53 230.22 109.59 230.33 126.78"/>
      <polygon class="st0" points="230.24 161.32 212.97 161.41 212.96 144.17 230.21 144.18 230.24 161.32"/>
      <polygon class="st0" points="109.62 92.27 92.47 92.35 92.58 75.12 109.7 75.08 109.62 92.27"/>
      <polygon class="st0" points="212.99 109.52 195.72 109.53 195.72 92.37 212.94 92.34 212.99 109.52"/>
      <polygon class="st0" points="264.79 126.71 247.58 126.8 247.56 109.6 264.66 109.56 264.79 126.71"/>
      <polygon class="st0" points="264.79 161.33 247.6 161.36 247.59 144.21 264.74 144.19 264.79 161.33"/>
      <polygon class="st0" points="212.96 178.34 195.74 178.41 195.71 161.43 212.9 161.46 212.96 178.34"/>
      <polygon class="st0" points="281.6 109.49 264.82 109.54 264.81 92.34 281.57 92.34 281.6 109.49"/>
      <polygon class="st0" points="281.59 178.31 264.83 178.36 264.8 161.42 281.58 161.45 281.59 178.31"/>
    </g>
  </g>
</svg>